<svg xmlns="http://www.w3.org/2000/svg" xmlns:xlink="http://www.w3.org/1999/xlink" id="&#xB808;&#xC774;&#xC5B4;_1" x="0px" y="0px" viewBox="0 0 45.3 45.3" style="enable-background:new 0 0 45.3 45.3;" xml:space="preserve"><style type="text/css">	.st0{fill:#0069B2;}	.st1{fill:#FFFFFF;}</style><path class="st0" d="M35.8,45.3H9.5c-5.2,0-9.5-4.3-9.5-9.5V9.5C0,4.3,4.3,0,9.5,0h26.3c5.2,0,9.5,4.3,9.5,9.5v26.3 C45.3,41.1,41.1,45.3,35.8,45.3z"></path><g>	<path class="st1" d="M11.9,16.4v11c0,0.1-0.1,0.2-0.2,0.2c-0.1,0-0.2-0.1-0.2-0.2v-11h-0.7v11l0,0c0,0.5,0.4,0.8,0.9,0.8  s0.9-0.4,0.9-0.8l0,0v-11H11.9z"></path>	<polyline class="st1" points="9.2,28.8 9.2,29.9 36.1,29.9 36.1,28.8  "></polyline>	<rect x="7.7" y="30.7" class="st1" width="29.9" height="1.1"></rect>	<rect x="6.3" y="32.7" class="st1" width="32.8" height="1.1"></rect>	<rect x="9.2" y="14.6" class="st1" width="26.9" height="1.1"></rect>	<polygon class="st1" points="14.7,13.9 22.7,11.5 30.5,13.9 33.8,13.9 22.7,10.4 11.4,13.9  "></polygon>	<polygon class="st1" points="22.7,8.5 9.2,12.6 9.2,13.9 22.7,9.8 36.1,13.9 36.1,12.6  "></polygon>	<polygon class="st1" points="15.2,28.2 15.7,28.2 15.7,21.1 16.5,28.2 17,28.2 17,16.4 16.5,16.4 16.5,22.7 15.7,16.4 15.2,16.4    "></polygon>	<polygon class="st1" points="19.6,28.2 21.4,28.2 21.4,27.6 20.4,27.6 20.4,22.3 21.1,22.3 21.1,21.7 20.4,21.7 20.4,17 21.1,17   21.1,16.4 19.6,16.4  "></polygon>	<path class="st1" d="M24.9,16.4c-0.6,0-0.9,0.4-0.9,0.8l0,0v2.7c0,1.5,1.1,3,1.1,4.5v3c0,0.1-0.1,0.2-0.2,0.2s-0.2-0.1-0.2-0.2v-3  h-0.7v3l0,0c0,0.5,0.4,0.8,0.9,0.8s0.9-0.4,0.9-0.8c0,0,0-2.4,0-3c0-1.4-1.1-3.6-1.1-4.5v-2.7c0-0.1,0.1-0.2,0.2-0.2  s0.2,0.1,0.2,0.2v2.7h0.7v-2.7l0,0C25.8,16.8,25.4,16.4,24.9,16.4z"></path>	<path class="st1" d="M30.2,27.4L30.2,27.4c0,0.5-0.4,0.8-0.9,0.8s-0.9-0.4-0.9-0.8l0,0l0,0V17.2l0,0l0,0c0-0.5,0.4-0.8,0.9-0.8  s0.9,0.4,0.9,0.8l0,0l0,0v2.7h-0.7v-2.7l0,0c0-0.1-0.1-0.2-0.2-0.2c-0.1,0-0.2,0.1-0.2,0.2l0,0v10.1l0,0c0,0.1,0.1,0.2,0.2,0.2  c0.1,0,0.2-0.1,0.2-0.2l0,0v-3h0.7V27.4L30.2,27.4z"></path>	<g>		<path class="st1" d="M32.7,17.2L32.7,17.2L32.7,17.2z"></path>		<path class="st1" d="M32.7,17.2L32.7,17.2L32.7,17.2z"></path>		<path class="st1" d="M33.6,16.4c-0.6,0-0.9,0.4-0.9,0.8v10.1l0,0c0,0.5,0.4,0.8,0.9,0.8s0.9-0.4,0.9-0.8l0,0V17.2   C34.6,16.8,34.2,16.4,33.6,16.4z M33.6,27.6c-0.1,0-0.2-0.1-0.2-0.2l0,0V17.2l0,0l0,0l0,0l0,0l0,0l0,0c0-0.1,0.1-0.2,0.2-0.2   c0.1,0,0.2,0.1,0.2,0.2v10.1l0,0C33.9,27.5,33.8,27.6,33.6,27.6z"></path>	</g></g></svg>